<svg width="70" height="70" viewBox="0 0 70 70" fill="none" xmlns="http://www.w3.org/2000/svg">
<path d="M32.9584 31.6285L32.9237 31.5925L32.9584 31.6285C35.7251 28.9616 37.8048 24.6803 38.1211 20.799C38.4149 17.1906 36.6781 14.0816 33.6882 12.0953C30.3491 9.87683 25.8823 9.33767 22.104 10.6711C20.1686 11.354 18.8544 12.3108 18.0076 13.4621C17.1609 14.6134 16.7846 15.955 16.718 17.4021C16.613 19.6806 17.3987 23.1328 18.7208 26.3046C19.3822 27.8911 20.1786 29.4095 21.0666 30.6775C21.9543 31.945 22.9356 32.9654 23.9679 33.552C27.19 35.3833 30.5054 33.9924 32.9584 31.6285ZM30.1997 57.2848L30.165 57.2488L30.1997 57.2848C32.9664 54.6177 35.0464 50.3366 35.3627 46.4553C35.6562 42.8469 33.9194 39.7376 30.9295 37.7516C27.5904 35.5331 23.1236 34.994 19.3453 36.3272C17.4099 37.0101 16.0957 37.967 15.2489 39.1183C14.4022 40.2696 14.026 41.6112 13.9593 43.0582L14.0093 43.0605L13.9593 43.0582C13.8545 45.3368 14.6402 48.7891 15.9623 51.9608C16.6236 53.5474 17.42 55.0658 18.308 56.3338C19.1956 57.6013 20.177 58.6217 21.2093 59.2083C24.4316 61.0396 27.747 59.6487 30.1997 57.2848ZM38.682 36.861L38.7318 36.8563L38.682 36.861C38.7832 37.9431 39.1983 39.9492 39.7496 41.866C40.0254 42.8247 40.3356 43.7624 40.6583 44.552C40.9804 45.3401 41.3169 45.9859 41.6469 46.3568C41.9932 46.7458 42.3138 47.0001 42.6094 47.1293C42.9065 47.2592 43.1792 47.2627 43.4233 47.1484C43.6653 47.0351 43.872 46.809 44.0463 46.4935C44.2207 46.1775 44.3649 45.7677 44.4796 45.28C44.6934 44.3717 44.7494 42.9722 44.6351 41.4845C44.5041 39.7841 44.1338 37.9307 43.4946 36.4546C42.8567 34.9816 41.9438 33.8683 40.719 33.6796C40.2799 33.6119 39.918 33.6483 39.6256 33.7769C39.3326 33.9057 39.1138 34.1253 38.9582 34.4157C38.6488 34.9934 38.5879 35.8545 38.682 36.861ZM17.6741 44.274L17.7239 44.2694L17.6741 44.2741C17.7754 45.3561 18.1905 47.3621 18.7419 49.2788C19.0177 50.2376 19.3279 51.1752 19.6506 51.9648C19.9727 52.7529 20.3093 53.3988 20.6393 53.7696C20.9855 54.1587 21.3062 54.413 21.6017 54.5422C21.8988 54.672 22.1716 54.6757 22.4156 54.5614C22.6576 54.4481 22.8643 54.2221 23.0385 53.9065C23.213 53.5906 23.357 53.1808 23.4718 52.6931C23.6858 51.7848 23.7418 50.3853 23.6272 48.8976C23.4962 47.197 23.126 45.3436 22.4868 43.8675C21.8491 42.3945 20.9362 41.2812 19.7114 41.0926C19.2723 41.025 18.9104 41.0614 18.618 41.1899C18.3249 41.3188 18.1061 41.5383 17.9506 41.8287C17.6411 42.4063 17.5801 43.2675 17.6741 44.274ZM29.7353 39.5428L29.763 39.5011L29.7353 39.5428C32.0603 41.0875 33.4435 43.475 33.2154 46.282C32.9397 49.6657 31.1212 53.4056 28.7043 55.7355C26.9629 57.4137 24.5796 58.6455 22.2769 57.3364C20.6802 56.4291 19.1319 54.3665 17.8393 50.7034C16.9359 48.1428 16.0118 45.4192 16.1157 43.1568C16.1628 42.1349 16.4375 41.1896 17.0546 40.3744C17.6717 39.5591 18.6344 38.8697 20.0643 38.3651C23.2102 37.2551 26.9545 37.695 29.7353 39.5428ZM26.2304 27.0368L26.1818 27.0254L26.2304 27.0368C26.4442 26.1285 26.5002 24.729 26.3856 23.2413C26.2548 21.5407 25.8845 19.6873 25.2453 18.2112C24.6075 16.7382 23.6946 15.6249 22.4698 15.4363C22.0307 15.3687 21.6688 15.4051 21.3764 15.5337C21.0833 15.6625 20.8645 15.8821 20.709 16.1725C20.3996 16.7501 20.3387 17.6113 20.4328 18.6177C20.534 19.6998 20.9491 21.7059 21.5004 23.6226C21.7762 24.5814 22.0864 25.519 22.4091 26.3086C22.7312 27.0967 23.0677 27.7425 23.3977 28.1133C23.7439 28.5024 24.0646 28.7567 24.3601 28.8859C24.6572 29.0157 24.93 29.0194 25.174 28.9051C25.4161 28.7918 25.6228 28.5658 25.7971 28.2502C25.9715 27.9343 26.1156 27.5245 26.2304 27.0368ZM20.598 25.0471L20.5508 25.0637L20.598 25.0471C19.6943 22.4865 18.7702 19.7629 18.8744 17.5005C18.9215 16.4786 19.1961 15.5333 19.8132 14.7181C20.4303 13.9028 21.393 13.2134 22.823 12.7088C25.9689 11.5988 29.7129 12.0387 32.494 13.8865C34.819 15.4312 36.2019 17.8187 35.9741 20.6257C35.6981 24.0094 33.8797 27.7493 31.4627 30.0792C29.7216 31.7574 27.3383 32.9892 25.0353 31.6801C23.4388 30.7728 21.8906 28.7105 20.598 25.0471ZM51.9374 30.3388C48.5983 28.1201 44.1315 27.5812 40.3532 28.9143C38.4178 29.5973 37.1036 30.5542 36.2568 31.7055C35.4101 32.8568 35.0339 34.1984 34.9672 35.6453C34.8623 37.9238 35.648 41.3761 36.9701 44.5478C37.6314 46.1344 38.4278 47.6528 39.3159 48.9209C40.2035 50.1884 41.1848 51.2088 42.2172 51.7955C45.4392 53.6266 48.7546 52.2359 51.2076 49.8717C53.9743 47.2049 56.0541 42.9235 56.3703 39.0422C56.6641 35.4338 54.9273 32.3248 51.9374 30.3388ZM40.4286 35.829C40.4286 35.8234 40.4287 35.8185 40.4289 35.8142C40.7024 35.8692 40.9545 36.0796 41.1833 36.4163C41.4208 36.7659 41.6279 37.2441 41.8042 37.8016C42.1566 38.9163 42.3821 40.3376 42.4833 41.6529C42.5331 42.2977 42.5482 42.9109 42.5301 43.4495C42.2659 42.6887 41.7339 40.9292 41.2707 39.282C41.0105 38.3566 40.7724 37.4681 40.6162 36.8137C40.538 36.4863 40.4805 36.2186 40.4509 36.0346C40.4361 35.942 40.4287 35.8731 40.4286 35.829ZM37.1236 35.7437C37.1707 34.7218 37.4454 33.7766 38.0625 32.9614C38.6796 32.146 39.6423 31.4567 41.0722 30.9521C44.2181 29.8421 47.9621 30.2821 50.7432 32.13C53.0682 33.6744 54.4514 36.0622 54.2233 38.8689C53.9473 42.2526 52.1289 45.9927 49.712 48.3224C47.9708 50.0006 45.5875 51.2327 43.2845 49.9236C41.6881 49.016 40.1398 46.9537 38.8472 43.2903C37.9435 40.7297 37.0194 38.0061 37.1236 35.7437ZM21.5222 50.8624C21.258 50.1017 20.726 48.3422 20.2629 46.695C20.0027 45.7696 19.7646 44.8811 19.6083 44.2267C19.5301 43.8992 19.4726 43.6315 19.4431 43.4475C19.4282 43.3549 19.4208 43.286 19.4207 43.2418C19.4207 43.2362 19.4209 43.2313 19.4211 43.2271C19.6946 43.2821 19.9466 43.4925 20.1754 43.8293C20.4129 44.1788 20.6201 44.657 20.7963 45.2145C21.1487 46.3292 21.3744 47.7504 21.4757 49.0657C21.5253 49.7108 21.5403 50.3238 21.5222 50.8624ZM24.2808 25.2061C24.0167 24.4454 23.4847 22.6859 23.0215 21.0387C22.7613 20.1133 22.5232 19.2248 22.3669 18.5704C22.2888 18.2429 22.2313 17.9752 22.2017 17.7912C22.1869 17.6986 22.1795 17.6297 22.1794 17.5855C22.1794 17.5799 22.1795 17.575 22.1797 17.5708C22.4532 17.6258 22.7053 17.8362 22.9341 18.173C23.1715 18.5225 23.3787 19.0007 23.555 19.5582C23.9073 20.6729 24.1329 22.0941 24.2341 23.4094C24.2839 24.0545 24.299 24.6675 24.2808 25.2061Z" fill="black" stroke="black" stroke-width="0.1"/>
</svg>
