<svg width="70" height="70" viewBox="0 0 70 70" fill="none" xmlns="http://www.w3.org/2000/svg">
<path d="M18.8855 23.2479L18.8855 23.2479L31.5602 10.5714C32.1554 9.97619 33.2169 9.97619 33.8121 10.5714L48.3436 25.1029L48.432 25.0146L48.3437 25.1029C49.9855 26.7446 49.9855 29.4162 48.344 31.0583C48.344 31.0583 48.344 31.0583 48.344 31.0583L39.3708 40.0315L39.3707 40.0316C38.5774 40.8263 37.5191 41.2644 36.3931 41.2662C35.2688 41.2644 34.2105 40.8264 33.4155 40.0299L33.4154 40.0298L18.8855 25.4998C18.8855 25.4998 18.8855 25.4998 18.8855 25.4998C18.2634 24.8776 18.2634 23.8699 18.8855 23.2479ZM32.7746 14.0375L32.6862 13.9491L32.5979 14.0375L22.3517 24.2854L22.2633 24.3738L22.3517 24.4621L27.5721 29.6826L27.6605 29.771L27.7489 29.6826L37.9951 19.4347L38.0835 19.3463L37.9951 19.2579L32.7746 14.0375ZM46.0919 28.8062L46.0921 28.806C46.4912 28.405 46.4912 27.7559 46.0921 27.3549L46.0919 27.3547L40.5772 21.84L40.4888 21.7516L40.4004 21.84L30.1542 32.0879L30.0658 32.1763L30.1542 32.2647L35.6689 37.7794C36.0604 38.1709 36.7295 38.1647 37.1165 37.7816L37.117 37.7811L46.0919 28.8062Z" fill="black" stroke="#FFD3BA" stroke-width="0.25"/>
<path d="M26.2991 49.4866L26.2868 49.3754H26.1749H10.7175C9.83727 49.3754 9.125 48.6631 9.125 47.7829C9.125 46.9027 9.83727 46.1904 10.7175 46.1904H27.7864C28.6666 46.1904 29.3789 46.9027 29.3789 47.7829C29.3789 50.1863 30.0862 52.4072 31.2174 54.0304C32.3478 55.6524 33.9118 56.69 35.6242 56.69C37.335 56.69 38.8974 55.6523 40.0264 54.0304C41.1563 52.4072 41.8628 50.1863 41.8628 47.7829C41.8628 46.9027 42.575 46.1904 43.4553 46.1904H58.901C59.7814 46.1904 60.4937 46.9027 60.4937 47.7829C60.4937 48.6631 59.7814 49.3754 58.9012 49.3754H45.0673H44.9554L44.9431 49.4867C44.2912 55.3736 40.3455 59.8749 35.6245 59.8749C30.9006 59.8749 26.9517 55.3735 26.2991 49.4866Z" fill="black" stroke="#FFD3BA" stroke-width="0.25"/>
<path d="M56.0273 30.1207H56.0273H56.0776C56.586 30.1207 57.0009 29.7059 57.0009 29.1974C57.0009 28.5695 56.5986 28.1415 56.0776 28.1415C55.524 28.1415 55.104 28.5513 55.104 29.0648C55.104 29.6927 55.5066 30.1205 56.0273 30.1207ZM58.4686 29.0646C58.4686 30.5195 57.3917 31.588 56.0778 31.588H56.0275C54.7095 31.588 53.6367 30.5152 53.6367 29.1972C53.6367 27.7423 54.7137 26.6738 56.0275 26.6738C57.3975 26.6738 58.4686 27.7482 58.4686 29.0646Z" fill="black" stroke="#FFD3BA" stroke-width="0.25"/>
<path d="M23.9894 42.3028C22.6714 42.3028 21.5986 41.2301 21.5986 39.912C21.5986 38.4572 22.6756 37.3887 23.9894 37.3887C25.3611 37.3887 26.4322 38.4631 26.4322 39.7795C26.4322 41.2343 25.3553 42.3028 24.0415 42.3028H23.9894ZM24.0415 40.8353C24.5431 40.8353 24.9647 40.4139 24.9647 39.912C24.9647 39.2908 24.5555 38.8562 24.0415 38.8562C23.4863 38.8562 23.0661 39.2658 23.0661 39.7795C23.0661 40.4073 23.4684 40.8353 23.9894 40.8353H24.0415Z" fill="black" stroke="#FFD3BA" stroke-width="0.25"/>
<path d="M45.1125 44.0265C43.7945 44.0265 42.7217 42.9537 42.7217 41.634C42.7217 40.1809 43.7986 39.1123 45.1125 39.1123C46.4842 39.1123 47.5553 40.1867 47.5553 41.5031C47.5553 42.9579 46.4784 44.0265 45.1628 44.0265H45.1125ZM45.1628 42.559C45.6729 42.559 46.0878 42.144 46.0878 41.634C46.0878 41.0075 45.6851 40.5798 45.1628 40.5798C44.6092 40.5798 44.1892 40.9896 44.1892 41.5031C44.1892 42.1309 44.5915 42.559 45.1125 42.559H45.1628Z" fill="black" stroke="#FFD3BA" stroke-width="0.25"/>
<path d="M54.3439 40.0313C53.0259 40.0313 51.9531 38.9586 51.9531 37.6406C51.9531 36.1859 53.0301 35.1172 54.3439 35.1172C55.7156 35.1172 56.7867 36.1916 56.7867 37.508C56.7867 38.9628 55.7098 40.0313 54.3959 40.0313H54.3439ZM55.3192 37.6406C55.3192 37.0193 54.9101 36.5847 54.3959 36.5847C53.8474 36.5847 53.4206 37.0012 53.4206 37.508C53.4206 38.1358 53.8229 38.5638 54.3439 38.5638H54.3959C54.9043 38.5638 55.3192 38.1491 55.3192 37.6406Z" fill="black" stroke="#FFD3BA" stroke-width="0.25"/>
<path d="M35.5939 50.9317C34.2759 50.9317 33.2031 49.859 33.2031 48.5409C33.2031 47.0861 34.2801 46.0176 35.5939 46.0176C36.9656 46.0176 38.0367 47.092 38.0367 48.4084C38.0367 49.8632 36.9598 50.9317 35.6459 50.9317H35.5939ZM35.6459 49.4642C36.1543 49.4642 36.5692 49.0495 36.5692 48.5409C36.5692 47.9131 36.1669 47.4851 35.6459 47.4851C35.0908 47.4851 34.6706 47.8947 34.6706 48.4084C34.6706 49.0296 35.0797 49.4642 35.5939 49.4642H35.6459Z" fill="black" stroke="#FFD3BA" stroke-width="0.25"/>
</svg>
