<svg width="70" height="70" viewBox="0 0 70 70" fill="none" xmlns="http://www.w3.org/2000/svg">
<path d="M52.4 14C47.8192 14 43.755 16.2232 41.2 19.635V14H38.4V23.835C35.845 20.4232 31.7808 18.2 27.2 18.2H25.8V19.6C25.8 26.8478 31.3356 32.8244 38.4 33.5286V37.254C36.0886 35.028 32.5564 33.6 28.6 33.6C21.6518 33.6 16 37.9974 16 43.4C16 48.8026 21.6518 53.2 28.6 53.2C32.8742 53.2 36.6528 51.5326 38.932 48.993C40.0744 53.2616 42.9906 56 46.8 56V53.2C43.503 53.2 41.2 49.7448 41.2 44.8V33.6V32.2V29.3286C48.2644 28.6244 53.8 22.6478 53.8 15.4V14H52.4ZM28.6 50.4C23.1974 50.4 18.8 47.2598 18.8 43.4C18.8 39.5402 23.1974 36.4 28.6 36.4C34.0026 36.4 38.4 39.5402 38.4 43.4C38.4 47.2598 34.0026 50.4 28.6 50.4ZM28.6994 21.0994C33.6792 21.7686 37.63 25.7208 38.2992 30.6992C33.3208 30.0314 29.37 26.0778 28.6994 21.0994ZM41.2994 26.5006C41.97 21.5222 45.9208 17.57 50.8992 16.9008C50.23 21.8778 46.2792 25.8314 41.2994 26.5006Z" fill="black"/>
</svg>
